<svg width="830" height="27" viewBox="0 0 830 27" fill="none" xmlns="http://www.w3.org/2000/svg">
<path d="M56.3005 0V14.2" stroke="#F4F4F4" stroke-miterlimit="10"/>
<path d="M28.8005 14.2V0" stroke="#F4F4F4" stroke-miterlimit="10"/>
<path d="M31.6005 7.1V0" stroke="#F4F4F4" stroke-miterlimit="10"/>
<path d="M34.3005 7.1V0" stroke="#F4F4F4" stroke-miterlimit="10"/>
<path d="M37.1005 7.1V0" stroke="#F4F4F4" stroke-miterlimit="10"/>
<path d="M39.8005 7.1V0" stroke="#F4F4F4" stroke-miterlimit="10"/>
<path d="M42.5005 10.1V0" stroke="#F4F4F4" stroke-miterlimit="10"/>
<path d="M45.3005 7.1V0" stroke="#F4F4F4" stroke-miterlimit="10"/>
<path d="M48.0005 7.1V0" stroke="#F4F4F4" stroke-miterlimit="10"/>
<path d="M50.8005 7.1V0" stroke="#F4F4F4" stroke-miterlimit="10"/>
<path d="M53.5005 7.1V0" stroke="#F4F4F4" stroke-miterlimit="10"/>
<path d="M1.40048 14.2V0" stroke="#F4F4F4" stroke-miterlimit="10"/>
<path d="M4.10049 7.1V0" stroke="#F4F4F4" stroke-miterlimit="10"/>
<path d="M6.90048 7.1V0" stroke="#F4F4F4" stroke-miterlimit="10"/>
<path d="M9.60049 7.1V0" stroke="#F4F4F4" stroke-miterlimit="10"/>
<path d="M12.4005 7.1V0" stroke="#F4F4F4" stroke-miterlimit="10"/>
<path d="M15.1005 10.1V0" stroke="#F4F4F4" stroke-miterlimit="10"/>
<path d="M17.9005 7.1V0" stroke="#F4F4F4" stroke-miterlimit="10"/>
<path d="M20.6005 7.1V0" stroke="#F4F4F4" stroke-miterlimit="10"/>
<path d="M23.3005 7.1V0" stroke="#F4F4F4" stroke-miterlimit="10"/>
<path d="M26.1005 7.1V0" stroke="#F4F4F4" stroke-miterlimit="10"/>
<path d="M83.7005 0V14.2" stroke="#F4F4F4" stroke-miterlimit="10"/>
<path d="M59.0005 7.1V0" stroke="#F4F4F4" stroke-miterlimit="10"/>
<path d="M61.7005 7.1V0" stroke="#F4F4F4" stroke-miterlimit="10"/>
<path d="M64.5005 7.1V0" stroke="#F4F4F4" stroke-miterlimit="10"/>
<path d="M67.2005 7.1V0" stroke="#F4F4F4" stroke-miterlimit="10"/>
<path d="M70.0005 10.1V0" stroke="#F4F4F4" stroke-miterlimit="10"/>
<path d="M72.7005 7.1V0" stroke="#F4F4F4" stroke-miterlimit="10"/>
<path d="M75.5005 7.1V0" stroke="#F4F4F4" stroke-miterlimit="10"/>
<path d="M78.2005 7.1V0" stroke="#F4F4F4" stroke-miterlimit="10"/>
<path d="M80.9005 7.1V0" stroke="#F4F4F4" stroke-miterlimit="10"/>
<path d="M111.1 0V14.2" stroke="#F4F4F4" stroke-miterlimit="10"/>
<path d="M86.4005 7.1V0" stroke="#F4F4F4" stroke-miterlimit="10"/>
<path d="M89.2005 7.1V0" stroke="#F4F4F4" stroke-miterlimit="10"/>
<path d="M91.9005 7.1V0" stroke="#F4F4F4" stroke-miterlimit="10"/>
<path d="M94.7005 7.1V0" stroke="#F4F4F4" stroke-miterlimit="10"/>
<path d="M97.4005 10.1V0" stroke="#F4F4F4" stroke-miterlimit="10"/>
<path d="M100.1 7.1V0" stroke="#F4F4F4" stroke-miterlimit="10"/>
<path d="M102.9 7.1V0" stroke="#F4F4F4" stroke-miterlimit="10"/>
<path d="M105.6 7.1V0" stroke="#F4F4F4" stroke-miterlimit="10"/>
<path d="M108.4 7.1V0" stroke="#F4F4F4" stroke-miterlimit="10"/>
<path d="M138.6 0V14.2" stroke="#F4F4F4" stroke-miterlimit="10"/>
<path d="M113.9 7.1V0" stroke="#F4F4F4" stroke-miterlimit="10"/>
<path d="M116.6 7.1V0" stroke="#F4F4F4" stroke-miterlimit="10"/>
<path d="M119.4 7.1V0" stroke="#F4F4F4" stroke-miterlimit="10"/>
<path d="M122.1 7.1V0" stroke="#F4F4F4" stroke-miterlimit="10"/>
<path d="M124.8 10.1V0" stroke="#F4F4F4" stroke-miterlimit="10"/>
<path d="M127.6 7.1V0" stroke="#F4F4F4" stroke-miterlimit="10"/>
<path d="M130.3 7.1V0" stroke="#F4F4F4" stroke-miterlimit="10"/>
<path d="M133.1 7.1V0" stroke="#F4F4F4" stroke-miterlimit="10"/>
<path d="M135.8 7.1V0" stroke="#F4F4F4" stroke-miterlimit="10"/>
<path d="M166 0V14.2" stroke="#F4F4F4" stroke-miterlimit="10"/>
<path d="M141.3 7.1V0" stroke="#F4F4F4" stroke-miterlimit="10"/>
<path d="M144 7.1V0" stroke="#F4F4F4" stroke-miterlimit="10"/>
<path d="M146.8 7.1V0" stroke="#F4F4F4" stroke-miterlimit="10"/>
<path d="M149.5 7.1V0" stroke="#F4F4F4" stroke-miterlimit="10"/>
<path d="M152.3 10.1V0" stroke="#F4F4F4" stroke-miterlimit="10"/>
<path d="M155 7.1V0" stroke="#F4F4F4" stroke-miterlimit="10"/>
<path d="M157.8 7.1V0" stroke="#F4F4F4" stroke-miterlimit="10"/>
<path d="M160.5 7.1V0" stroke="#F4F4F4" stroke-miterlimit="10"/>
<path d="M163.2 7.1V0" stroke="#F4F4F4" stroke-miterlimit="10"/>
<path d="M193.4 0V14.2" stroke="#F4F4F4" stroke-miterlimit="10"/>
<path d="M168.7 7.1V0" stroke="#F4F4F4" stroke-miterlimit="10"/>
<path d="M171.5 7.1V0" stroke="#F4F4F4" stroke-miterlimit="10"/>
<path d="M174.2 7.1V0" stroke="#F4F4F4" stroke-miterlimit="10"/>
<path d="M177 7.1V0" stroke="#F4F4F4" stroke-miterlimit="10"/>
<path d="M179.7 10.1V0" stroke="#F4F4F4" stroke-miterlimit="10"/>
<path d="M182.4 7.1V0" stroke="#F4F4F4" stroke-miterlimit="10"/>
<path d="M185.2 7.1V0" stroke="#F4F4F4" stroke-miterlimit="10"/>
<path d="M187.9 7.1V0" stroke="#F4F4F4" stroke-miterlimit="10"/>
<path d="M190.7 7.1V0" stroke="#F4F4F4" stroke-miterlimit="10"/>
<path d="M220.8 0V14.2" stroke="#F4F4F4" stroke-miterlimit="10"/>
<path d="M196.2 7.1V0" stroke="#F4F4F4" stroke-miterlimit="10"/>
<path d="M198.9 7.1V0" stroke="#F4F4F4" stroke-miterlimit="10"/>
<path d="M201.6 7.1V0" stroke="#F4F4F4" stroke-miterlimit="10"/>
<path d="M204.4 7.1V0" stroke="#F4F4F4" stroke-miterlimit="10"/>
<path d="M207.1 10.1V0" stroke="#F4F4F4" stroke-miterlimit="10"/>
<path d="M209.9 7.1V0" stroke="#F4F4F4" stroke-miterlimit="10"/>
<path d="M212.6 7.1V0" stroke="#F4F4F4" stroke-miterlimit="10"/>
<path d="M215.4 7.1V0" stroke="#F4F4F4" stroke-miterlimit="10"/>
<path d="M218.1 7.1V0" stroke="#F4F4F4" stroke-miterlimit="10"/>
<path d="M248.3 0V14.2" stroke="#F4F4F4" stroke-miterlimit="10"/>
<path d="M223.6 7.1V0" stroke="#F4F4F4" stroke-miterlimit="10"/>
<path d="M226.3 7.1V0" stroke="#F4F4F4" stroke-miterlimit="10"/>
<path d="M229.1 7.1V0" stroke="#F4F4F4" stroke-miterlimit="10"/>
<path d="M231.8 7.1V0" stroke="#F4F4F4" stroke-miterlimit="10"/>
<path d="M234.6 10.1V0" stroke="#F4F4F4" stroke-miterlimit="10"/>
<path d="M237.3 7.1V0" stroke="#F4F4F4" stroke-miterlimit="10"/>
<path d="M240.1 7.1V0" stroke="#F4F4F4" stroke-miterlimit="10"/>
<path d="M242.8 7.1V0" stroke="#F4F4F4" stroke-miterlimit="10"/>
<path d="M245.5 7.1V0" stroke="#F4F4F4" stroke-miterlimit="10"/>
<path d="M275.701 0V14.2" stroke="#F4F4F4" stroke-miterlimit="10"/>
<path d="M251 7.1V0" stroke="#F4F4F4" stroke-miterlimit="10"/>
<path d="M253.8 7.1V0" stroke="#F4F4F4" stroke-miterlimit="10"/>
<path d="M256.5 7.1V0" stroke="#F4F4F4" stroke-miterlimit="10"/>
<path d="M259.3 7.1V0" stroke="#F4F4F4" stroke-miterlimit="10"/>
<path d="M262 10.1V0" stroke="#F4F4F4" stroke-miterlimit="10"/>
<path d="M264.701 7.1V0" stroke="#F4F4F4" stroke-miterlimit="10"/>
<path d="M267.5 7.1V0" stroke="#F4F4F4" stroke-miterlimit="10"/>
<path d="M270.201 7.1V0" stroke="#F4F4F4" stroke-miterlimit="10"/>
<path d="M273 7.1V0" stroke="#F4F4F4" stroke-miterlimit="10"/>
<path d="M303.1 0V14.2" stroke="#F4F4F4" stroke-miterlimit="10"/>
<path d="M278.5 7.1V0" stroke="#F4F4F4" stroke-miterlimit="10"/>
<path d="M281.201 7.1V0" stroke="#F4F4F4" stroke-miterlimit="10"/>
<path d="M283.9 7.1V0" stroke="#F4F4F4" stroke-miterlimit="10"/>
<path d="M286.701 7.1V0" stroke="#F4F4F4" stroke-miterlimit="10"/>
<path d="M289.4 10.1V0" stroke="#F4F4F4" stroke-miterlimit="10"/>
<path d="M292.201 7.1V0" stroke="#F4F4F4" stroke-miterlimit="10"/>
<path d="M294.9 7.1V0" stroke="#F4F4F4" stroke-miterlimit="10"/>
<path d="M297.701 7.1V0" stroke="#F4F4F4" stroke-miterlimit="10"/>
<path d="M300.4 7.1V0" stroke="#F4F4F4" stroke-miterlimit="10"/>
<path d="M330.6 0V14.2" stroke="#F4F4F4" stroke-miterlimit="10"/>
<path d="M305.9 7.1V0" stroke="#F4F4F4" stroke-miterlimit="10"/>
<path d="M308.6 7.1V0" stroke="#F4F4F4" stroke-miterlimit="10"/>
<path d="M311.4 7.1V0" stroke="#F4F4F4" stroke-miterlimit="10"/>
<path d="M314.1 7.1V0" stroke="#F4F4F4" stroke-miterlimit="10"/>
<path d="M316.9 10.1V0" stroke="#F4F4F4" stroke-miterlimit="10"/>
<path d="M319.6 7.1V0" stroke="#F4F4F4" stroke-miterlimit="10"/>
<path d="M322.3 7.1V0" stroke="#F4F4F4" stroke-miterlimit="10"/>
<path d="M325.1 7.1V0" stroke="#F4F4F4" stroke-miterlimit="10"/>
<path d="M327.8 7.1V0" stroke="#F4F4F4" stroke-miterlimit="10"/>
<path d="M358 0V14.2" stroke="#F4F4F4" stroke-miterlimit="10"/>
<path d="M333.3 7.1V0" stroke="#F4F4F4" stroke-miterlimit="10"/>
<path d="M336.1 7.1V0" stroke="#F4F4F4" stroke-miterlimit="10"/>
<path d="M338.8 7.1V0" stroke="#F4F4F4" stroke-miterlimit="10"/>
<path d="M341.5 7.1V0" stroke="#F4F4F4" stroke-miterlimit="10"/>
<path d="M344.3 10.1V0" stroke="#F4F4F4" stroke-miterlimit="10"/>
<path d="M347 7.1V0" stroke="#F4F4F4" stroke-miterlimit="10"/>
<path d="M349.8 7.1V0" stroke="#F4F4F4" stroke-miterlimit="10"/>
<path d="M352.5 7.1V0" stroke="#F4F4F4" stroke-miterlimit="10"/>
<path d="M355.3 7.1V0" stroke="#F4F4F4" stroke-miterlimit="10"/>
<path d="M385.4 0V14.2" stroke="#F4F4F4" stroke-miterlimit="10"/>
<path d="M360.8 7.1V0" stroke="#F4F4F4" stroke-miterlimit="10"/>
<path d="M363.5 7.1V0" stroke="#F4F4F4" stroke-miterlimit="10"/>
<path d="M366.201 7.1V0" stroke="#F4F4F4" stroke-miterlimit="10"/>
<path d="M369 7.1V0" stroke="#F4F4F4" stroke-miterlimit="10"/>
<path d="M371.701 10.1V0" stroke="#F4F4F4" stroke-miterlimit="10"/>
<path d="M374.5 7.1V0" stroke="#F4F4F4" stroke-miterlimit="10"/>
<path d="M377.201 7.1V0" stroke="#F4F4F4" stroke-miterlimit="10"/>
<path d="M380 7.1V0" stroke="#F4F4F4" stroke-miterlimit="10"/>
<path d="M382.701 7.1V0" stroke="#F4F4F4" stroke-miterlimit="10"/>
<path d="M412.9 0V14.2" stroke="#F4F4F4" stroke-miterlimit="10"/>
<path d="M388.201 7.1V0" stroke="#F4F4F4" stroke-miterlimit="10"/>
<path d="M390.9 7.1V0" stroke="#F4F4F4" stroke-miterlimit="10"/>
<path d="M393.701 7.1V0" stroke="#F4F4F4" stroke-miterlimit="10"/>
<path d="M396.4 7.1V0" stroke="#F4F4F4" stroke-miterlimit="10"/>
<path d="M399.201 10.1V0" stroke="#F4F4F4" stroke-miterlimit="10"/>
<path d="M401.9 7.1V0" stroke="#F4F4F4" stroke-miterlimit="10"/>
<path d="M404.6 7.1V0" stroke="#F4F4F4" stroke-miterlimit="10"/>
<path d="M407.4 7.1V0" stroke="#F4F4F4" stroke-miterlimit="10"/>
<path d="M410.1 7.1V0" stroke="#F4F4F4" stroke-miterlimit="10"/>
<path d="M440.3 0V14.2" stroke="#F4F4F4" stroke-miterlimit="10"/>
<path d="M415.6 7.1V0" stroke="#F4F4F4" stroke-miterlimit="10"/>
<path d="M418.4 7.1V0" stroke="#F4F4F4" stroke-miterlimit="10"/>
<path d="M421.1 7.1V0" stroke="#F4F4F4" stroke-miterlimit="10"/>
<path d="M423.8 7.1V0" stroke="#F4F4F4" stroke-miterlimit="10"/>
<path d="M426.6 10.1V0" stroke="#F4F4F4" stroke-miterlimit="10"/>
<path d="M429.3 7.1V0" stroke="#F4F4F4" stroke-miterlimit="10"/>
<path d="M432.1 7.1V0" stroke="#F4F4F4" stroke-miterlimit="10"/>
<path d="M434.8 7.1V0" stroke="#F4F4F4" stroke-miterlimit="10"/>
<path d="M437.6 7.1V0" stroke="#F4F4F4" stroke-miterlimit="10"/>
<path d="M467.701 0V14.2" stroke="#F4F4F4" stroke-miterlimit="10"/>
<path d="M443 7.1V0" stroke="#F4F4F4" stroke-miterlimit="10"/>
<path d="M445.8 7.1V0" stroke="#F4F4F4" stroke-miterlimit="10"/>
<path d="M448.5 7.1V0" stroke="#F4F4F4" stroke-miterlimit="10"/>
<path d="M451.3 7.1V0" stroke="#F4F4F4" stroke-miterlimit="10"/>
<path d="M454 10.1V0" stroke="#F4F4F4" stroke-miterlimit="10"/>
<path d="M456.8 7.1V0" stroke="#F4F4F4" stroke-miterlimit="10"/>
<path d="M459.5 7.1V0" stroke="#F4F4F4" stroke-miterlimit="10"/>
<path d="M462.201 7.1V0" stroke="#F4F4F4" stroke-miterlimit="10"/>
<path d="M465 7.1V0" stroke="#F4F4F4" stroke-miterlimit="10"/>
<path d="M495.201 0V14.2" stroke="#F4F4F4" stroke-miterlimit="10"/>
<path d="M470.5 7.1V0" stroke="#F4F4F4" stroke-miterlimit="10"/>
<path d="M473.201 7.1V0" stroke="#F4F4F4" stroke-miterlimit="10"/>
<path d="M476 7.1V0" stroke="#F4F4F4" stroke-miterlimit="10"/>
<path d="M478.701 7.1V0" stroke="#F4F4F4" stroke-miterlimit="10"/>
<path d="M481.5 10.1V0" stroke="#F4F4F4" stroke-miterlimit="10"/>
<path d="M484.201 7.1V0" stroke="#F4F4F4" stroke-miterlimit="10"/>
<path d="M486.9 7.1V0" stroke="#F4F4F4" stroke-miterlimit="10"/>
<path d="M489.701 7.1V0" stroke="#F4F4F4" stroke-miterlimit="10"/>
<path d="M492.4 7.1V0" stroke="#F4F4F4" stroke-miterlimit="10"/>
<path d="M522.6 0V14.2" stroke="#F4F4F4" stroke-miterlimit="10"/>
<path d="M497.9 7.1V0" stroke="#F4F4F4" stroke-miterlimit="10"/>
<path d="M500.701 7.1V0" stroke="#F4F4F4" stroke-miterlimit="10"/>
<path d="M503.4 7.1V0" stroke="#F4F4F4" stroke-miterlimit="10"/>
<path d="M506.1 7.1V0" stroke="#F4F4F4" stroke-miterlimit="10"/>
<path d="M508.9 10.1V0" stroke="#F4F4F4" stroke-miterlimit="10"/>
<path d="M511.6 7.1V0" stroke="#F4F4F4" stroke-miterlimit="10"/>
<path d="M514.4 7.1V0" stroke="#F4F4F4" stroke-miterlimit="10"/>
<path d="M517.1 7.1V0" stroke="#F4F4F4" stroke-miterlimit="10"/>
<path d="M519.9 7.1V0" stroke="#F4F4F4" stroke-miterlimit="10"/>
<path d="M550 0V14.2" stroke="#F4F4F4" stroke-miterlimit="10"/>
<path d="M525.3 7.1V0" stroke="#F4F4F4" stroke-miterlimit="10"/>
<path d="M528.1 7.1V0" stroke="#F4F4F4" stroke-miterlimit="10"/>
<path d="M530.8 7.1V0" stroke="#F4F4F4" stroke-miterlimit="10"/>
<path d="M533.6 7.1V0" stroke="#F4F4F4" stroke-miterlimit="10"/>
<path d="M536.3 10.1V0" stroke="#F4F4F4" stroke-miterlimit="10"/>
<path d="M539.1 7.1V0" stroke="#F4F4F4" stroke-miterlimit="10"/>
<path d="M541.8 7.1V0" stroke="#F4F4F4" stroke-miterlimit="10"/>
<path d="M544.5 7.1V0" stroke="#F4F4F4" stroke-miterlimit="10"/>
<path d="M547.3 7.1V0" stroke="#F4F4F4" stroke-miterlimit="10"/>
<path d="M577.5 0V14.2" stroke="#F4F4F4" stroke-miterlimit="10"/>
<path d="M552.8 7.1V0" stroke="#F4F4F4" stroke-miterlimit="10"/>
<path d="M555.5 7.1V0" stroke="#F4F4F4" stroke-miterlimit="10"/>
<path d="M558.3 7.1V0" stroke="#F4F4F4" stroke-miterlimit="10"/>
<path d="M561 7.1V0" stroke="#F4F4F4" stroke-miterlimit="10"/>
<path d="M563.7 10.1V0" stroke="#F4F4F4" stroke-miterlimit="10"/>
<path d="M566.5 7.1V0" stroke="#F4F4F4" stroke-miterlimit="10"/>
<path d="M569.2 7.1V0" stroke="#F4F4F4" stroke-miterlimit="10"/>
<path d="M572 7.1V0" stroke="#F4F4F4" stroke-miterlimit="10"/>
<path d="M574.7 7.1V0" stroke="#F4F4F4" stroke-miterlimit="10"/>
<path d="M604.9 0V14.2" stroke="#F4F4F4" stroke-miterlimit="10"/>
<path d="M580.2 7.1V0" stroke="#F4F4F4" stroke-miterlimit="10"/>
<path d="M583 7.1V0" stroke="#F4F4F4" stroke-miterlimit="10"/>
<path d="M585.7 7.1V0" stroke="#F4F4F4" stroke-miterlimit="10"/>
<path d="M588.4 7.1V0" stroke="#F4F4F4" stroke-miterlimit="10"/>
<path d="M591.2 10.1V0" stroke="#F4F4F4" stroke-miterlimit="10"/>
<path d="M593.9 7.1V0" stroke="#F4F4F4" stroke-miterlimit="10"/>
<path d="M596.7 7.1V0" stroke="#F4F4F4" stroke-miterlimit="10"/>
<path d="M599.4 7.1V0" stroke="#F4F4F4" stroke-miterlimit="10"/>
<path d="M602.2 7.1V0" stroke="#F4F4F4" stroke-miterlimit="10"/>
<path d="M632.3 0V14.2" stroke="#F4F4F4" stroke-miterlimit="10"/>
<path d="M607.6 7.1V0" stroke="#F4F4F4" stroke-miterlimit="10"/>
<path d="M610.4 7.1V0" stroke="#F4F4F4" stroke-miterlimit="10"/>
<path d="M613.1 7.1V0" stroke="#F4F4F4" stroke-miterlimit="10"/>
<path d="M615.9 7.1V0" stroke="#F4F4F4" stroke-miterlimit="10"/>
<path d="M618.6 10.1V0" stroke="#F4F4F4" stroke-miterlimit="10"/>
<path d="M621.4 7.1V0" stroke="#F4F4F4" stroke-miterlimit="10"/>
<path d="M624.1 7.1V0" stroke="#F4F4F4" stroke-miterlimit="10"/>
<path d="M626.8 7.1V0" stroke="#F4F4F4" stroke-miterlimit="10"/>
<path d="M629.6 7.1V0" stroke="#F4F4F4" stroke-miterlimit="10"/>
<path d="M659.8 0V14.2" stroke="#F4F4F4" stroke-miterlimit="10"/>
<path d="M635.1 7.1V0" stroke="#F4F4F4" stroke-miterlimit="10"/>
<path d="M637.8 7.1V0" stroke="#F4F4F4" stroke-miterlimit="10"/>
<path d="M640.6 7.1V0" stroke="#F4F4F4" stroke-miterlimit="10"/>
<path d="M643.3 7.1V0" stroke="#F4F4F4" stroke-miterlimit="10"/>
<path d="M646 10.1V0" stroke="#F4F4F4" stroke-miterlimit="10"/>
<path d="M648.8 7.1V0" stroke="#F4F4F4" stroke-miterlimit="10"/>
<path d="M651.5 7.1V0" stroke="#F4F4F4" stroke-miterlimit="10"/>
<path d="M654.3 7.1V0" stroke="#F4F4F4" stroke-miterlimit="10"/>
<path d="M657 7.1V0" stroke="#F4F4F4" stroke-miterlimit="10"/>
<path d="M687.2 0V14.2" stroke="#F4F4F4" stroke-miterlimit="10"/>
<path d="M662.5 7.1V0" stroke="#F4F4F4" stroke-miterlimit="10"/>
<path d="M665.2 7.1V0" stroke="#F4F4F4" stroke-miterlimit="10"/>
<path d="M668 7.1V0" stroke="#F4F4F4" stroke-miterlimit="10"/>
<path d="M670.7 7.1V0" stroke="#F4F4F4" stroke-miterlimit="10"/>
<path d="M673.5 10.1V0" stroke="#F4F4F4" stroke-miterlimit="10"/>
<path d="M676.2 7.1V0" stroke="#F4F4F4" stroke-miterlimit="10"/>
<path d="M679 7.1V0" stroke="#F4F4F4" stroke-miterlimit="10"/>
<path d="M681.7 7.1V0" stroke="#F4F4F4" stroke-miterlimit="10"/>
<path d="M684.5 7.1V0" stroke="#F4F4F4" stroke-miterlimit="10"/>
<path d="M714.6 0V14.2" stroke="#F4F4F4" stroke-miterlimit="10"/>
<path d="M689.9 7.1V0" stroke="#F4F4F4" stroke-miterlimit="10"/>
<path d="M692.7 7.1V0" stroke="#F4F4F4" stroke-miterlimit="10"/>
<path d="M695.4 7.1V0" stroke="#F4F4F4" stroke-miterlimit="10"/>
<path d="M698.2 7.1V0" stroke="#F4F4F4" stroke-miterlimit="10"/>
<path d="M700.9 10.1V0" stroke="#F4F4F4" stroke-miterlimit="10"/>
<path d="M703.7 7.1V0" stroke="#F4F4F4" stroke-miterlimit="10"/>
<path d="M706.4 7.1V0" stroke="#F4F4F4" stroke-miterlimit="10"/>
<path d="M709.1 7.1V0" stroke="#F4F4F4" stroke-miterlimit="10"/>
<path d="M711.9 7.1V0" stroke="#F4F4F4" stroke-miterlimit="10"/>
<path d="M742.1 0V14.2" stroke="#F4F4F4" stroke-miterlimit="10"/>
<path d="M717.4 7.1V0" stroke="#F4F4F4" stroke-miterlimit="10"/>
<path d="M720.1 7.1V0" stroke="#F4F4F4" stroke-miterlimit="10"/>
<path d="M722.9 7.1V0" stroke="#F4F4F4" stroke-miterlimit="10"/>
<path d="M725.6 7.1V0" stroke="#F4F4F4" stroke-miterlimit="10"/>
<path d="M728.3 10.1V0" stroke="#F4F4F4" stroke-miterlimit="10"/>
<path d="M731.1 7.1V0" stroke="#F4F4F4" stroke-miterlimit="10"/>
<path d="M733.8 7.1V0" stroke="#F4F4F4" stroke-miterlimit="10"/>
<path d="M736.6 7.1V0" stroke="#F4F4F4" stroke-miterlimit="10"/>
<path d="M739.3 7.1V0" stroke="#F4F4F4" stroke-miterlimit="10"/>
<path d="M769.5 0V14.2" stroke="#F4F4F4" stroke-miterlimit="10"/>
<path d="M744.8 7.1V0" stroke="#F4F4F4" stroke-miterlimit="10"/>
<path d="M747.5 7.1V0" stroke="#F4F4F4" stroke-miterlimit="10"/>
<path d="M750.3 7.1V0" stroke="#F4F4F4" stroke-miterlimit="10"/>
<path d="M753 7.1V0" stroke="#F4F4F4" stroke-miterlimit="10"/>
<path d="M755.8 10.1V0" stroke="#F4F4F4" stroke-miterlimit="10"/>
<path d="M758.5 7.1V0" stroke="#F4F4F4" stroke-miterlimit="10"/>
<path d="M761.3 7.1V0" stroke="#F4F4F4" stroke-miterlimit="10"/>
<path d="M764 7.1V0" stroke="#F4F4F4" stroke-miterlimit="10"/>
<path d="M766.7 7.1V0" stroke="#F4F4F4" stroke-miterlimit="10"/>
<path d="M796.9 0V14.2" stroke="#F4F4F4" stroke-miterlimit="10"/>
<path d="M772.2 7.1V0" stroke="#F4F4F4" stroke-miterlimit="10"/>
<path d="M775 7.1V0" stroke="#F4F4F4" stroke-miterlimit="10"/>
<path d="M777.7 7.1V0" stroke="#F4F4F4" stroke-miterlimit="10"/>
<path d="M780.5 7.1V0" stroke="#F4F4F4" stroke-miterlimit="10"/>
<path d="M783.2 10.1V0" stroke="#F4F4F4" stroke-miterlimit="10"/>
<path d="M785.9 7.1V0" stroke="#F4F4F4" stroke-miterlimit="10"/>
<path d="M788.7 7.1V0" stroke="#F4F4F4" stroke-miterlimit="10"/>
<path d="M791.4 7.1V0" stroke="#F4F4F4" stroke-miterlimit="10"/>
<path d="M794.2 7.1V0" stroke="#F4F4F4" stroke-miterlimit="10"/>
<path d="M824.4 0V14.2" stroke="#F4F4F4" stroke-miterlimit="10"/>
<path d="M799.7 7.1V0" stroke="#F4F4F4" stroke-miterlimit="10"/>
<path d="M802.4 7.1V0" stroke="#F4F4F4" stroke-miterlimit="10"/>
<path d="M805.2 7.1V0" stroke="#F4F4F4" stroke-miterlimit="10"/>
<path d="M807.9 7.1V0" stroke="#F4F4F4" stroke-miterlimit="10"/>
<path d="M810.6 10.1V0" stroke="#F4F4F4" stroke-miterlimit="10"/>
<path d="M813.4 7.1V0" stroke="#F4F4F4" stroke-miterlimit="10"/>
<path d="M816.1 7.1V0" stroke="#F4F4F4" stroke-miterlimit="10"/>
<path d="M818.9 7.1V0" stroke="#F4F4F4" stroke-miterlimit="10"/>
<path d="M821.6 7.1V0" stroke="#F4F4F4" stroke-miterlimit="10"/>
<path d="M28.8043 24.0725H29.5083V18.4165H28.9803C28.7403 19.3525 28.6283 19.4325 27.3083 19.4885V20.0165H28.8043V24.0725Z" fill="#F4F4F4"/>
<path d="M58.1562 23.4565H55.1722C55.2202 22.9285 55.5322 22.5285 56.2042 22.1685L57.0042 21.7445C57.8042 21.3205 58.1962 20.7605 58.1962 20.0405C58.1962 19.1045 57.5962 18.3525 56.4522 18.3525C55.1882 18.3525 54.5482 19.0725 54.5082 20.3525H55.2122C55.2682 19.5285 55.6042 18.9685 56.4282 18.9685C57.1402 18.9685 57.4762 19.4085 57.4762 20.0405C57.4762 20.5285 57.2202 20.8885 56.7162 21.1685L55.9722 21.5765C54.8202 22.2085 54.4682 22.7605 54.3802 24.0725H58.1562V23.4565Z" fill="#F4F4F4"/>
<path d="M83.7241 21.4245C84.4921 21.4245 84.9001 21.7845 84.9001 22.4805C84.9001 23.0885 84.5401 23.6005 83.7241 23.6005C82.9161 23.6005 82.5481 23.1845 82.5081 22.4085H81.7961C81.8601 23.6165 82.5081 24.2165 83.7001 24.2165C84.8281 24.2165 85.6121 23.5605 85.6121 22.4725C85.6121 21.7605 85.3081 21.3205 84.6441 21.0885C85.1961 20.8805 85.4441 20.4325 85.4441 19.8965C85.4441 18.8645 84.7401 18.3525 83.7241 18.3525C82.5881 18.3525 81.9321 18.9765 81.9161 20.1685H82.6201C82.6441 19.3285 83.0041 18.9685 83.7241 18.9685C84.3081 18.9685 84.7321 19.2885 84.7321 19.9205C84.7321 20.7285 84.1481 20.8645 83.3321 20.8245V21.4245H83.7241Z" fill="#F4F4F4"/>
<path d="M111.596 24.0725H112.276V22.6485H113.116V22.0405H112.276V18.4325H111.66L109.18 21.9285V22.6485H111.596V24.0725ZM109.764 22.0405L111.596 19.4485V22.0405H109.764Z" fill="#F4F4F4"/>
<path d="M137.221 18.4805L136.805 21.5125H137.445C137.741 21.1205 138.077 20.9525 138.525 20.9525C139.349 20.9525 139.725 21.4965 139.725 22.2725C139.725 23.0485 139.309 23.6005 138.501 23.6005C137.893 23.6005 137.493 23.3045 137.333 22.7045H136.621C136.797 23.9365 137.853 24.2165 138.501 24.2165C139.709 24.2165 140.445 23.3845 140.445 22.2405C140.445 21.0805 139.653 20.3605 138.645 20.3605C138.261 20.3605 137.869 20.4565 137.565 20.7285L137.797 19.0965H140.149V18.4805H137.221Z" fill="#F4F4F4"/>
<path d="M167.845 19.7925C167.693 18.8805 167.125 18.3525 166.261 18.3525C164.933 18.3525 164.197 19.4725 164.197 21.4005C164.197 22.8885 164.669 24.2165 166.133 24.2165C167.317 24.2165 167.957 23.2965 167.957 22.2885C167.957 21.3525 167.357 20.4965 166.285 20.4965C165.653 20.4965 165.133 20.8005 164.885 21.2405C164.885 19.8085 165.365 18.9445 166.213 18.9445C166.789 18.9445 167.045 19.3045 167.149 19.7925H167.845ZM166.125 21.0885C166.829 21.0885 167.245 21.6405 167.245 22.3525C167.245 23.0725 166.829 23.6245 166.125 23.6245C165.453 23.6245 164.957 23.0725 164.957 22.3525C164.957 21.6405 165.453 21.0885 166.125 21.0885Z" fill="#F4F4F4"/>
<path d="M191.549 18.4805V19.0965H194.653C193.389 20.9445 192.837 21.7365 192.285 24.0725H193.037C193.373 22.1605 194.085 20.8245 195.341 19.0725V18.4805H191.549Z" fill="#F4F4F4"/>
<path d="M221.813 21.0565C222.397 20.6805 222.581 20.4085 222.581 19.8725C222.581 18.9765 221.893 18.3525 220.877 18.3525C219.893 18.3525 219.173 18.9685 219.173 19.8645C219.173 20.4565 219.437 20.7445 219.949 21.0565C219.301 21.3765 218.973 21.8405 218.973 22.4565C218.973 23.4965 219.757 24.2165 220.877 24.2165C222.021 24.2165 222.781 23.4965 222.781 22.4565C222.781 21.8405 222.461 21.3765 221.813 21.0565ZM220.877 18.9445C221.501 18.9445 221.901 19.3125 221.901 19.8885C221.901 20.4245 221.477 20.7765 220.877 20.7765C220.197 20.7765 219.853 20.3605 219.853 19.8725C219.853 19.3605 220.213 18.9445 220.877 18.9445ZM220.877 21.3685C221.533 21.3685 222.101 21.7525 222.101 22.4805C222.101 23.1685 221.597 23.6245 220.861 23.6245C220.189 23.6245 219.653 23.1765 219.653 22.4885C219.653 21.7765 220.213 21.3685 220.877 21.3685Z" fill="#F4F4F4"/>
<path d="M246.476 22.7765C246.628 23.6885 247.196 24.2165 248.06 24.2165C249.388 24.2165 250.124 23.0965 250.124 21.1685C250.124 19.6805 249.652 18.3525 248.188 18.3525C247.004 18.3525 246.364 19.2725 246.364 20.2805C246.364 21.2165 246.964 22.0725 248.036 22.0725C248.668 22.0725 249.188 21.7685 249.436 21.3285C249.436 22.7605 248.956 23.6245 248.108 23.6245C247.532 23.6245 247.276 23.2645 247.172 22.7765H246.476ZM248.196 21.4805C247.492 21.4805 247.076 20.9285 247.076 20.2165C247.076 19.4965 247.492 18.9445 248.196 18.9445C248.868 18.9445 249.364 19.4965 249.364 20.2165C249.364 20.9285 248.868 21.4805 248.196 21.4805Z" fill="#F4F4F4"/>
<path d="M272.72 24.0725H273.424V18.4165H272.896C272.656 19.3525 272.544 19.4325 271.224 19.4885V20.0165H272.72V24.0725ZM277.713 18.3525C276.257 18.3525 275.857 19.7925 275.857 21.2805C275.857 22.7685 276.257 24.2165 277.713 24.2165C279.169 24.2165 279.569 22.7685 279.569 21.2805C279.569 19.7925 279.169 18.3525 277.713 18.3525ZM277.713 18.9605C277.977 18.9605 278.193 19.0485 278.361 19.2245L276.785 22.9285C276.601 22.5285 276.513 21.9605 276.513 21.2805C276.513 19.8725 276.889 18.9605 277.713 18.9605ZM278.913 21.2805C278.913 22.6885 278.537 23.6085 277.713 23.6085C277.489 23.6085 277.297 23.5445 277.145 23.4165L278.689 19.7525C278.841 20.1445 278.913 20.6645 278.913 21.2805Z" fill="#F4F4F4"/>
<path d="M300.679 24.0725H301.383V18.4165H300.855C300.615 19.3525 300.503 19.4325 299.183 19.4885V20.0165H300.679V24.0725ZM305.625 24.0725H306.329V18.4165H305.801C305.561 19.3525 305.449 19.4325 304.129 19.4885V20.0165H305.625V24.0725Z" fill="#F4F4F4"/>
<path d="M328.112 24.0725H328.816V18.4165H328.288C328.048 19.3525 327.936 19.4325 326.616 19.4885V20.0165H328.112V24.0725ZM334.977 23.4565H331.993C332.041 22.9285 332.353 22.5285 333.025 22.1685L333.825 21.7445C334.625 21.3205 335.017 20.7605 335.017 20.0405C335.017 19.1045 334.417 18.3525 333.273 18.3525C332.009 18.3525 331.369 19.0725 331.329 20.3525H332.033C332.089 19.5285 332.425 18.9685 333.249 18.9685C333.961 18.9685 334.297 19.4085 334.297 20.0405C334.297 20.5285 334.041 20.8885 333.537 21.1685L332.793 21.5765C331.641 22.2085 331.289 22.7605 331.201 24.0725H334.977V23.4565Z" fill="#F4F4F4"/>
<path d="M355.544 24.0725H356.248V18.4165H355.72C355.48 19.3525 355.368 19.4325 354.048 19.4885V20.0165H355.544V24.0725ZM360.545 21.4245C361.313 21.4245 361.721 21.7845 361.721 22.4805C361.721 23.0885 361.361 23.6005 360.545 23.6005C359.737 23.6005 359.369 23.1845 359.329 22.4085H358.617C358.681 23.6165 359.329 24.2165 360.521 24.2165C361.649 24.2165 362.433 23.5605 362.433 22.4725C362.433 21.7605 362.129 21.3205 361.465 21.0885C362.017 20.8805 362.265 20.4325 362.265 19.8965C362.265 18.8645 361.561 18.3525 360.545 18.3525C359.409 18.3525 358.753 18.9765 358.737 20.1685H359.441C359.465 19.3285 359.825 18.9685 360.545 18.9685C361.129 18.9685 361.553 19.2885 361.553 19.9205C361.553 20.7285 360.969 20.8645 360.153 20.8245V21.4245H360.545Z" fill="#F4F4F4"/>
<path d="M382.976 24.0725H383.68V18.4165H383.152C382.912 19.3525 382.8 19.4325 381.48 19.4885V20.0165H382.976V24.0725ZM388.417 24.0725H389.097V22.6485H389.937V22.0405H389.097V18.4325H388.481L386.001 21.9285V22.6485H388.417V24.0725ZM386.585 22.0405L388.417 19.4485V22.0405H386.585Z" fill="#F4F4F4"/>
<path d="M410.408 24.0725H411.112V18.4165H410.584C410.344 19.3525 410.232 19.4325 408.912 19.4885V20.0165H410.408V24.0725ZM414.041 18.4805L413.625 21.5125H414.265C414.561 21.1205 414.897 20.9525 415.345 20.9525C416.169 20.9525 416.545 21.4965 416.545 22.2725C416.545 23.0485 416.129 23.6005 415.321 23.6005C414.713 23.6005 414.313 23.3045 414.153 22.7045H413.441C413.617 23.9365 414.673 24.2165 415.321 24.2165C416.529 24.2165 417.265 23.3845 417.265 22.2405C417.265 21.0805 416.473 20.3605 415.465 20.3605C415.081 20.3605 414.689 20.4565 414.385 20.7285L414.617 19.0965H416.969V18.4805H414.041Z" fill="#F4F4F4"/>
<path d="M437.84 24.0725H438.544V18.4165H438.016C437.776 19.3525 437.664 19.4325 436.344 19.4885V20.0165H437.84V24.0725ZM444.665 19.7925C444.513 18.8805 443.945 18.3525 443.081 18.3525C441.753 18.3525 441.017 19.4725 441.017 21.4005C441.017 22.8885 441.489 24.2165 442.953 24.2165C444.137 24.2165 444.777 23.2965 444.777 22.2885C444.777 21.3525 444.177 20.4965 443.105 20.4965C442.473 20.4965 441.953 20.8005 441.705 21.2405C441.705 19.8085 442.185 18.9445 443.033 18.9445C443.609 18.9445 443.865 19.3045 443.969 19.7925H444.665ZM442.945 21.0885C443.649 21.0885 444.065 21.6405 444.065 22.3525C444.065 23.0725 443.649 23.6245 442.945 23.6245C442.273 23.6245 441.777 23.0725 441.777 22.3525C441.777 21.6405 442.273 21.0885 442.945 21.0885Z" fill="#F4F4F4"/>
<path d="M465.272 24.0725H465.976V18.4165H465.448C465.208 19.3525 465.096 19.4325 463.776 19.4885V20.0165H465.272V24.0725ZM468.369 18.4805V19.0965H471.473C470.209 20.9445 469.657 21.7365 469.105 24.0725H469.857C470.193 22.1605 470.905 20.8245 472.161 19.0725V18.4805H468.369Z" fill="#F4F4F4"/>
<path d="M492.704 24.0725H493.408V18.4165H492.88C492.64 19.3525 492.528 19.4325 491.208 19.4885V20.0165H492.704V24.0725ZM498.633 21.0565C499.217 20.6805 499.401 20.4085 499.401 19.8725C499.401 18.9765 498.713 18.3525 497.697 18.3525C496.713 18.3525 495.993 18.9685 495.993 19.8645C495.993 20.4565 496.257 20.7445 496.769 21.0565C496.121 21.3765 495.793 21.8405 495.793 22.4565C495.793 23.4965 496.577 24.2165 497.697 24.2165C498.841 24.2165 499.601 23.4965 499.601 22.4565C499.601 21.8405 499.281 21.3765 498.633 21.0565ZM497.697 18.9445C498.321 18.9445 498.721 19.3125 498.721 19.8885C498.721 20.4245 498.297 20.7765 497.697 20.7765C497.017 20.7765 496.673 20.3605 496.673 19.8725C496.673 19.3605 497.033 18.9445 497.697 18.9445ZM497.697 21.3685C498.353 21.3685 498.921 21.7525 498.921 22.4805C498.921 23.1685 498.417 23.6245 497.681 23.6245C497.009 23.6245 496.473 23.1765 496.473 22.4885C496.473 21.7765 497.033 21.3685 497.697 21.3685Z" fill="#F4F4F4"/>
<path d="M520.136 24.0725H520.84V18.4165H520.312C520.072 19.3525 519.96 19.4325 518.64 19.4885V20.0165H520.136V24.0725ZM523.297 22.7765C523.449 23.6885 524.017 24.2165 524.881 24.2165C526.209 24.2165 526.945 23.0965 526.945 21.1685C526.945 19.6805 526.473 18.3525 525.009 18.3525C523.825 18.3525 523.185 19.2725 523.185 20.2805C523.185 21.2165 523.785 22.0725 524.857 22.0725C525.489 22.0725 526.009 21.7685 526.257 21.3285C526.257 22.7605 525.777 23.6245 524.929 23.6245C524.353 23.6245 524.097 23.2645 523.993 22.7765H523.297ZM525.017 21.4805C524.313 21.4805 523.897 20.9285 523.897 20.2165C523.897 19.4965 524.313 18.9445 525.017 18.9445C525.689 18.9445 526.185 19.4965 526.185 20.2165C526.185 20.9285 525.689 21.4805 525.017 21.4805Z" fill="#F4F4F4"/>
<path d="M549.488 23.4565H546.504C546.552 22.9285 546.864 22.5285 547.536 22.1685L548.336 21.7445C549.136 21.3205 549.528 20.7605 549.528 20.0405C549.528 19.1045 548.928 18.3525 547.784 18.3525C546.52 18.3525 545.88 19.0725 545.84 20.3525H546.544C546.6 19.5285 546.936 18.9685 547.76 18.9685C548.472 18.9685 548.808 19.4085 548.808 20.0405C548.808 20.5285 548.552 20.8885 548.048 21.1685L547.304 21.5765C546.152 22.2085 545.8 22.7605 545.712 24.0725H549.488V23.4565ZM552.561 18.3525C551.105 18.3525 550.705 19.7925 550.705 21.2805C550.705 22.7685 551.105 24.2165 552.561 24.2165C554.017 24.2165 554.417 22.7685 554.417 21.2805C554.417 19.7925 554.017 18.3525 552.561 18.3525ZM552.561 18.9605C552.825 18.9605 553.041 19.0485 553.209 19.2245L551.633 22.9285C551.449 22.5285 551.361 21.9605 551.361 21.2805C551.361 19.8725 551.737 18.9605 552.561 18.9605ZM553.761 21.2805C553.761 22.6885 553.385 23.6085 552.561 23.6085C552.337 23.6085 552.145 23.5445 551.993 23.4165L553.537 19.7525C553.689 20.1445 553.761 20.6645 553.761 21.2805Z" fill="#F4F4F4"/>
<path d="M576.92 23.4565H573.936C573.984 22.9285 574.296 22.5285 574.968 22.1685L575.768 21.7445C576.568 21.3205 576.96 20.7605 576.96 20.0405C576.96 19.1045 576.36 18.3525 575.216 18.3525C573.952 18.3525 573.312 19.0725 573.272 20.3525H573.976C574.032 19.5285 574.368 18.9685 575.192 18.9685C575.904 18.9685 576.24 19.4085 576.24 20.0405C576.24 20.5285 575.984 20.8885 575.48 21.1685L574.736 21.5765C573.584 22.2085 573.232 22.7605 573.144 24.0725H576.92V23.4565ZM579.945 24.0725H580.649V18.4165H580.121C579.881 19.3525 579.769 19.4325 578.449 19.4885V20.0165H579.945V24.0725Z" fill="#F4F4F4"/>
<path d="M604.352 23.4565H601.368C601.416 22.9285 601.728 22.5285 602.4 22.1685L603.2 21.7445C604 21.3205 604.392 20.7605 604.392 20.0405C604.392 19.1045 603.792 18.3525 602.648 18.3525C601.384 18.3525 600.744 19.0725 600.704 20.3525H601.408C601.464 19.5285 601.8 18.9685 602.624 18.9685C603.336 18.9685 603.672 19.4085 603.672 20.0405C603.672 20.5285 603.416 20.8885 602.912 21.1685L602.168 21.5765C601.016 22.2085 600.664 22.7605 600.576 24.0725H604.352V23.4565ZM609.297 23.4565H606.313C606.361 22.9285 606.673 22.5285 607.345 22.1685L608.145 21.7445C608.945 21.3205 609.337 20.7605 609.337 20.0405C609.337 19.1045 608.737 18.3525 607.593 18.3525C606.329 18.3525 605.689 19.0725 605.649 20.3525H606.353C606.409 19.5285 606.745 18.9685 607.569 18.9685C608.281 18.9685 608.617 19.4085 608.617 20.0405C608.617 20.5285 608.361 20.8885 607.857 21.1685L607.113 21.5765C605.961 22.2085 605.609 22.7605 605.521 24.0725H609.297V23.4565Z" fill="#F4F4F4"/>
<path d="M631.784 23.4565H628.8C628.848 22.9285 629.16 22.5285 629.832 22.1685L630.632 21.7445C631.432 21.3205 631.824 20.7605 631.824 20.0405C631.824 19.1045 631.224 18.3525 630.08 18.3525C628.816 18.3525 628.176 19.0725 628.136 20.3525H628.84C628.896 19.5285 629.232 18.9685 630.056 18.9685C630.768 18.9685 631.104 19.4085 631.104 20.0405C631.104 20.5285 630.848 20.8885 630.344 21.1685L629.6 21.5765C628.448 22.2085 628.096 22.7605 628.008 24.0725H631.784V23.4565ZM634.865 21.4245C635.633 21.4245 636.041 21.7845 636.041 22.4805C636.041 23.0885 635.681 23.6005 634.865 23.6005C634.057 23.6005 633.689 23.1845 633.649 22.4085H632.937C633.001 23.6165 633.649 24.2165 634.841 24.2165C635.969 24.2165 636.753 23.5605 636.753 22.4725C636.753 21.7605 636.449 21.3205 635.785 21.0885C636.337 20.8805 636.585 20.4325 636.585 19.8965C636.585 18.8645 635.881 18.3525 634.865 18.3525C633.729 18.3525 633.073 18.9765 633.057 20.1685H633.761C633.785 19.3285 634.145 18.9685 634.865 18.9685C635.449 18.9685 635.873 19.2885 635.873 19.9205C635.873 20.7285 635.289 20.8645 634.473 20.8245V21.4245H634.865Z" fill="#F4F4F4"/>
<path d="M659.216 23.4565H656.232C656.28 22.9285 656.592 22.5285 657.264 22.1685L658.064 21.7445C658.864 21.3205 659.256 20.7605 659.256 20.0405C659.256 19.1045 658.656 18.3525 657.512 18.3525C656.248 18.3525 655.608 19.0725 655.568 20.3525H656.272C656.328 19.5285 656.664 18.9685 657.488 18.9685C658.2 18.9685 658.536 19.4085 658.536 20.0405C658.536 20.5285 658.28 20.8885 657.776 21.1685L657.032 21.5765C655.88 22.2085 655.528 22.7605 655.44 24.0725H659.216V23.4565ZM662.737 24.0725H663.417V22.6485H664.257V22.0405H663.417V18.4325H662.801L660.321 21.9285V22.6485H662.737V24.0725ZM660.905 22.0405L662.737 19.4485V22.0405H660.905Z" fill="#F4F4F4"/>
<path d="M686.648 23.4565H683.664C683.712 22.9285 684.024 22.5285 684.696 22.1685L685.496 21.7445C686.296 21.3205 686.688 20.7605 686.688 20.0405C686.688 19.1045 686.088 18.3525 684.944 18.3525C683.68 18.3525 683.04 19.0725 683 20.3525H683.704C683.76 19.5285 684.096 18.9685 684.92 18.9685C685.632 18.9685 685.968 19.4085 685.968 20.0405C685.968 20.5285 685.712 20.8885 685.208 21.1685L684.464 21.5765C683.312 22.2085 682.96 22.7605 682.872 24.0725H686.648V23.4565ZM688.362 18.4805L687.946 21.5125H688.586C688.882 21.1205 689.218 20.9525 689.666 20.9525C690.49 20.9525 690.866 21.4965 690.866 22.2725C690.866 23.0485 690.45 23.6005 689.642 23.6005C689.034 23.6005 688.634 23.3045 688.474 22.7045H687.762C687.938 23.9365 688.994 24.2165 689.642 24.2165C690.85 24.2165 691.586 23.3845 691.586 22.2405C691.586 21.0805 690.794 20.3605 689.786 20.3605C689.402 20.3605 689.01 20.4565 688.706 20.7285L688.938 19.0965H691.29V18.4805H688.362Z" fill="#F4F4F4"/>
<path d="M714.08 23.4565H711.096C711.144 22.9285 711.456 22.5285 712.128 22.1685L712.928 21.7445C713.728 21.3205 714.12 20.7605 714.12 20.0405C714.12 19.1045 713.52 18.3525 712.376 18.3525C711.112 18.3525 710.472 19.0725 710.432 20.3525H711.136C711.192 19.5285 711.528 18.9685 712.352 18.9685C713.064 18.9685 713.4 19.4085 713.4 20.0405C713.4 20.5285 713.144 20.8885 712.64 21.1685L711.896 21.5765C710.744 22.2085 710.392 22.7605 710.304 24.0725H714.08V23.4565ZM718.985 19.7925C718.833 18.8805 718.265 18.3525 717.401 18.3525C716.073 18.3525 715.337 19.4725 715.337 21.4005C715.337 22.8885 715.809 24.2165 717.273 24.2165C718.457 24.2165 719.097 23.2965 719.097 22.2885C719.097 21.3525 718.497 20.4965 717.425 20.4965C716.793 20.4965 716.273 20.8005 716.025 21.2405C716.025 19.8085 716.505 18.9445 717.353 18.9445C717.929 18.9445 718.185 19.3045 718.289 19.7925H718.985ZM717.265 21.0885C717.969 21.0885 718.385 21.6405 718.385 22.3525C718.385 23.0725 717.969 23.6245 717.265 23.6245C716.593 23.6245 716.097 23.0725 716.097 22.3525C716.097 21.6405 716.593 21.0885 717.265 21.0885Z" fill="#F4F4F4"/>
<path d="M741.512 23.4565H738.528C738.576 22.9285 738.888 22.5285 739.56 22.1685L740.36 21.7445C741.16 21.3205 741.552 20.7605 741.552 20.0405C741.552 19.1045 740.952 18.3525 739.808 18.3525C738.544 18.3525 737.904 19.0725 737.864 20.3525H738.568C738.624 19.5285 738.96 18.9685 739.784 18.9685C740.496 18.9685 740.832 19.4085 740.832 20.0405C740.832 20.5285 740.576 20.8885 740.072 21.1685L739.328 21.5765C738.176 22.2085 737.824 22.7605 737.736 24.0725H741.512V23.4565ZM742.689 18.4805V19.0965H745.793C744.529 20.9445 743.977 21.7365 743.425 24.0725H744.177C744.513 22.1605 745.225 20.8245 746.481 19.0725V18.4805H742.689Z" fill="#F4F4F4"/>
<path d="M768.944 23.4565H765.96C766.008 22.9285 766.32 22.5285 766.992 22.1685L767.792 21.7445C768.592 21.3205 768.984 20.7605 768.984 20.0405C768.984 19.1045 768.384 18.3525 767.24 18.3525C765.976 18.3525 765.336 19.0725 765.296 20.3525H766C766.056 19.5285 766.392 18.9685 767.216 18.9685C767.928 18.9685 768.264 19.4085 768.264 20.0405C768.264 20.5285 768.008 20.8885 767.504 21.1685L766.76 21.5765C765.608 22.2085 765.256 22.7605 765.168 24.0725H768.944V23.4565ZM772.954 21.0565C773.538 20.6805 773.722 20.4085 773.722 19.8725C773.722 18.9765 773.034 18.3525 772.018 18.3525C771.034 18.3525 770.314 18.9685 770.314 19.8645C770.314 20.4565 770.578 20.7445 771.09 21.0565C770.442 21.3765 770.114 21.8405 770.114 22.4565C770.114 23.4965 770.898 24.2165 772.018 24.2165C773.162 24.2165 773.922 23.4965 773.922 22.4565C773.922 21.8405 773.602 21.3765 772.954 21.0565ZM772.018 18.9445C772.642 18.9445 773.042 19.3125 773.042 19.8885C773.042 20.4245 772.618 20.7765 772.018 20.7765C771.338 20.7765 770.994 20.3605 770.994 19.8725C770.994 19.3605 771.354 18.9445 772.018 18.9445ZM772.018 21.3685C772.674 21.3685 773.242 21.7525 773.242 22.4805C773.242 23.1685 772.738 23.6245 772.002 23.6245C771.33 23.6245 770.794 23.1765 770.794 22.4885C770.794 21.7765 771.354 21.3685 772.018 21.3685Z" fill="#F4F4F4"/>
<path d="M796.376 23.4565H793.392C793.44 22.9285 793.752 22.5285 794.424 22.1685L795.224 21.7445C796.024 21.3205 796.416 20.7605 796.416 20.0405C796.416 19.1045 795.816 18.3525 794.672 18.3525C793.408 18.3525 792.768 19.0725 792.728 20.3525H793.432C793.488 19.5285 793.824 18.9685 794.648 18.9685C795.36 18.9685 795.696 19.4085 795.696 20.0405C795.696 20.5285 795.44 20.8885 794.936 21.1685L794.192 21.5765C793.04 22.2085 792.688 22.7605 792.6 24.0725H796.376V23.4565ZM797.617 22.7765C797.769 23.6885 798.337 24.2165 799.201 24.2165C800.529 24.2165 801.265 23.0965 801.265 21.1685C801.265 19.6805 800.793 18.3525 799.329 18.3525C798.145 18.3525 797.505 19.2725 797.505 20.2805C797.505 21.2165 798.105 22.0725 799.177 22.0725C799.809 22.0725 800.329 21.7685 800.577 21.3285C800.577 22.7605 800.097 23.6245 799.249 23.6245C798.673 23.6245 798.417 23.2645 798.313 22.7765H797.617ZM799.337 21.4805C798.633 21.4805 798.217 20.9285 798.217 20.2165C798.217 19.4965 798.633 18.9445 799.337 18.9445C800.009 18.9445 800.505 19.4965 800.505 20.2165C800.505 20.9285 800.009 21.4805 799.337 21.4805Z" fill="#F4F4F4"/>
<path d="M821.944 21.4245C822.712 21.4245 823.12 21.7845 823.12 22.4805C823.12 23.0885 822.76 23.6005 821.944 23.6005C821.136 23.6005 820.768 23.1845 820.728 22.4085H820.016C820.08 23.6165 820.728 24.2165 821.92 24.2165C823.048 24.2165 823.832 23.5605 823.832 22.4725C823.832 21.7605 823.528 21.3205 822.864 21.0885C823.416 20.8805 823.664 20.4325 823.664 19.8965C823.664 18.8645 822.96 18.3525 821.944 18.3525C820.808 18.3525 820.152 18.9765 820.136 20.1685H820.84C820.864 19.3285 821.224 18.9685 821.944 18.9685C822.528 18.9685 822.952 19.2885 822.952 19.9205C822.952 20.7285 822.368 20.8645 821.552 20.8245V21.4245H821.944ZM826.882 18.3525C825.426 18.3525 825.026 19.7925 825.026 21.2805C825.026 22.7685 825.426 24.2165 826.882 24.2165C828.338 24.2165 828.738 22.7685 828.738 21.2805C828.738 19.7925 828.338 18.3525 826.882 18.3525ZM826.882 18.9605C827.146 18.9605 827.362 19.0485 827.53 19.2245L825.954 22.9285C825.77 22.5285 825.682 21.9605 825.682 21.2805C825.682 19.8725 826.058 18.9605 826.882 18.9605ZM828.082 21.2805C828.082 22.6885 827.706 23.6085 826.882 23.6085C826.658 23.6085 826.466 23.5445 826.314 23.4165L827.858 19.7525C828.01 20.1445 828.082 20.6645 828.082 21.2805Z" fill="#F4F4F4"/>
<path d="M2.55403 18.3525C1.09803 18.3525 0.698031 19.7925 0.698031 21.2805C0.698031 22.7685 1.09803 24.2165 2.55403 24.2165C4.01003 24.2165 4.41003 22.7685 4.41003 21.2805C4.41003 19.7925 4.01003 18.3525 2.55403 18.3525ZM2.55403 18.9605C2.81803 18.9605 3.03403 19.0485 3.20203 19.2245L1.62603 22.9285C1.44203 22.5285 1.35403 21.9605 1.35403 21.2805C1.35403 19.8725 1.73003 18.9605 2.55403 18.9605ZM3.75403 21.2805C3.75403 22.6885 3.37803 23.6085 2.55403 23.6085C2.33003 23.6085 2.13803 23.5445 1.98603 23.4165L3.53003 19.7525C3.68203 20.1445 3.75403 20.6645 3.75403 21.2805ZM9.29134 21.2645C9.26734 20.3765 8.62734 19.7525 7.60334 19.7525C6.35534 19.7525 5.69934 20.7685 5.69934 22.0245C5.69934 23.2565 6.37134 24.2165 7.59534 24.2165C8.62734 24.2165 9.25134 23.6165 9.33934 22.6085H8.66734C8.55534 23.2725 8.19534 23.6005 7.61134 23.6005C6.77134 23.6005 6.39534 22.8565 6.39534 22.0245C6.39534 21.1925 6.73134 20.3685 7.59534 20.3685C8.17934 20.3685 8.54734 20.7125 8.61934 21.2645H9.29134ZM10.2847 24.0725H10.9407V21.0485C10.9407 20.6085 11.2047 20.3445 11.6527 20.3445C11.9247 20.3445 12.1167 20.4965 12.1167 20.7925V24.0725H12.7727V21.0485C12.7727 20.6085 13.0367 20.3445 13.4847 20.3445C13.7567 20.3445 13.9487 20.4965 13.9487 20.7925V24.0725H14.6047V20.6565C14.6047 20.1285 14.2207 19.7845 13.7007 19.7845C13.2287 19.7845 12.8927 20.0645 12.7247 20.3445C12.6047 20.0005 12.2767 19.7845 11.8687 19.7845C11.4207 19.7845 11.0847 20.0485 10.9087 20.3125V19.8805H10.2847V24.0725Z" fill="#F4F4F4"/>
</svg>
