<svg width="24" height="24" viewBox="0 0 24 24" fill="none" xmlns="http://www.w3.org/2000/svg">
<g clip-path="url(#clip0_211_101290)">
<path d="M10 4L12 5L14 4" stroke="#F4F4F4" stroke-width="1.5" stroke-linecap="round" stroke-linejoin="round"/>
<path d="M12 2V8.5L15 10.22" stroke="#F4F4F4" stroke-width="1.5" stroke-linecap="round" stroke-linejoin="round"/>
<path d="M17.9297 6.26758L18.0637 8.49958L19.9297 9.73158" stroke="#F4F4F4" stroke-width="1.5" stroke-linecap="round" stroke-linejoin="round"/>
<path d="M20.6602 7L15.0312 10.25L15.0413 13.708" stroke="#F4F4F4" stroke-width="1.5" stroke-linecap="round" stroke-linejoin="round"/>
<path d="M19.9297 14.2676L18.0637 15.4996L17.9297 17.7316" stroke="#F4F4F4" stroke-width="1.5" stroke-linecap="round" stroke-linejoin="round"/>
<path d="M20.6581 17L15.0291 13.75L12.0391 15.488" stroke="#F4F4F4" stroke-width="1.5" stroke-linecap="round" stroke-linejoin="round"/>
<path d="M14 20L12 19L10 20" stroke="#F4F4F4" stroke-width="1.5" stroke-linecap="round" stroke-linejoin="round"/>
<path d="M12 21.9993V15.4993L9 13.7793" stroke="#F4F4F4" stroke-width="1.5" stroke-linecap="round" stroke-linejoin="round"/>
<path d="M6.07031 17.7316L5.93631 15.4996L4.07031 14.2676" stroke="#F4F4F4" stroke-width="1.5" stroke-linecap="round" stroke-linejoin="round"/>
<path d="M3.33984 17.001L8.96884 13.751L8.95884 10.293" stroke="#F4F4F4" stroke-width="1.5" stroke-linecap="round" stroke-linejoin="round"/>
<path d="M4.07031 9.73158L5.93631 8.49958L6.07031 6.26758" stroke="#F4F4F4" stroke-width="1.5" stroke-linecap="round" stroke-linejoin="round"/>
<path d="M3.33984 7L8.96884 10.25L11.9588 8.512" stroke="#F4F4F4" stroke-width="1.5" stroke-linecap="round" stroke-linejoin="round"/>
</g>
<defs>
<clipPath id="clip0_211_101290">
<rect width="24" height="24" fill="white"/>
</clipPath>
</defs>
</svg>
